<svg xmlns="http://www.w3.org/2000/svg" shape-rendering="geometricPrecision" text-rendering="geometricPrecision" image-rendering="optimizeQuality" fill-rule="evenodd" clip-rule="evenodd" viewBox="0 0 512 512"><g fill-rule="nonzero"><path d="M255.927 0h.072C397.361 0 512 114.639 512 255.999 512 397.361 397.361 512 255.999 512 114.639 512 0 397.361 0 255.999c0-67.882 27.004-133.047 74.977-181.022C122.782 26.987 187.807 0 255.57 0h.371-.014z"/><path fill="#fff" d="M211.553 171.712v168.536h-45.765V213.845h-.965l-36.881 22.052v-38.812l41.478-25.373h42.133zm105.033 170.854c-9.847 0-19.155-1.545-27.96-4.674-8.806-3.089-16.606-7.993-23.403-14.675-6.798-6.681-12.127-15.409-15.99-26.184-3.862-10.736-5.793-23.751-5.715-39.084.039-13.633 1.815-25.952 5.291-36.842 3.476-10.93 8.457-20.237 14.908-27.923 6.449-7.646 14.173-13.555 23.132-17.65 8.999-4.055 19.039-6.101 30.046-6.101 12.398 0 23.327 2.356 32.75 7.144 9.424 4.789 16.954 11.161 22.593 19.117 5.638 7.995 8.921 16.8 9.848 26.377h-45.108c-1.043-4.75-3.438-8.264-7.183-10.465-3.786-2.24-8.073-3.36-12.9-3.36-9.577 0-16.645 4.171-21.086 12.513-4.479 8.342-6.758 19.31-6.873 32.942h.965c2.161-5.175 5.407-9.577 9.732-13.284 4.326-3.67 9.384-6.489 15.139-8.459 5.753-1.97 11.856-2.973 18.267-2.973 10.196 0 19.116 2.316 26.764 6.912 7.646 4.635 13.632 10.93 17.919 18.924 4.287 8.033 6.372 17.185 6.334 27.498.038 12.049-2.781 22.631-8.535 31.669-5.716 9.075-13.672 16.103-23.829 21.086-10.118 4.982-21.859 7.492-35.106 7.492zM316.24 308c4.556 0 8.611-1.042 12.125-3.127 3.553-2.086 6.334-4.944 8.342-8.574 1.97-3.63 2.975-7.724 2.897-12.319.078-4.673-.927-8.807-2.897-12.398-2.008-3.592-4.789-6.449-8.342-8.534-3.514-2.087-7.569-3.129-12.125-3.129-3.361 0-6.412.617-9.27 1.776-2.819 1.197-5.252 2.859-7.337 5.021a23.204 23.204 0 00-4.905 7.646c-1.198 2.936-1.815 6.141-1.854 9.618.039 4.595 1.081 8.689 3.128 12.319 2.048 3.63 4.79 6.488 8.303 8.574 3.515 2.085 7.492 3.127 11.935 3.127z"/></g></svg>